<svg xmlns="http://www.w3.org/2000/svg" width="160" height="160" viewBox="0 0 160 160"><path fill="#EFAB1F" d="M0 0h160v53.3H0z"/><path fill="#E88146" d="M0 53.3h160v53.3H0z"/><path fill="#2F307F" d="M0 106.7h160V160H0z"/><path d="M20.2 19.1H22l5.4 15.2h-2L24 30.2h-6l-1.4 4.1h-2l5.6-15.2zm.9 2.4l-2.3 6.9h4.7l-2.4-6.9zm8.9 1.8h1.8v7.2c0 1.5.7 2.2 2 2.2.9 0 1.7-.5 2.3-1.4.6-.9.9-2.2.9-3.7v-4.4h1.8v11H37v-2c-.8 1.3-2.2 2.2-3.7 2.2-2.2 0-3.3-1.3-3.3-3.5v-7.6zm21.7 2.2l-1.4 1c-.6-1.2-1.5-1.7-2.6-1.7-1 0-1.9.5-1.9 1.5 0 .9.8 1.3 2.5 1.7.9.2 1.5.3 2.2.7 1 .4 1.7 1.2 1.7 2.3 0 1.1-.4 2-1.2 2.6s-1.8.9-3 .9c-2.3 0-4.1-1.2-4.8-3.2l1.7-.7c.5 1.4 1.5 2.2 3 2.2 1.3 0 2.3-.6 2.3-1.7 0-.9-.8-1.2-2.8-1.6-2.1-.5-3.4-1.2-3.4-3.2 0-1 .4-1.7 1.1-2.3.7-.6 1.6-.9 2.7-.9 1.7 0 3 .8 3.9 2.4zm3.9-.5v-1.7h2.9V20l1.8-1.2v4.4h5.3V25h-5.3v5.6c0 1.5.6 2.2 1.9 2.2 1 0 1.9-.4 2.7-1.3l.7 1.5c-.9.9-2.1 1.4-3.4 1.4-2.4 0-3.7-1.3-3.7-3.8V25h-2.9zm21.9 1.8c-.2-1.3-.9-2-2.1-2-1 0-1.9.5-2.6 1.5-.7 1-1.1 2.3-1.1 4.1v4h-1.8v-11h1.8v2c.9-1.5 2.3-2.2 4-2.2 2.2 0 3.5 1.3 3.6 3.7h-1.8zm14.4 7.5h-1.5l-.3-1.5c-.7 1-2.2 1.7-3.9 1.7-1.9 0-3.4-1.2-3.4-3.3 0-2.4 1.8-3.6 5-3.6H90v-.5c0-1.6-1-2.3-2.5-2.3-1.2 0-2.2.8-2.6 1.9l-1.6-.4c.5-1.9 2.2-3.1 4.2-3.1 2.7 0 4.4 1.3 4.4 4.2v6.9zm-5.4-1.5c.9 0 1.7-.3 2.4-.8.7-.6 1.1-1.4 1.1-2.5v-.4h-2.4c-1.8 0-2.9.8-2.9 2 0 1.1.7 1.7 1.8 1.7zm11-12.1h-3V19h4.9v11.1c0 1.8.8 2.7 2.3 2.7 1.4 0 2.3-.9 2.5-2.7l1.7.3c-.4 2.6-1.9 4-4.2 4-2.5 0-4.1-1.6-4.1-4.3v-9.4zm11.9 4.2v-1.6h5.2v9.4h4v1.6H109v-1.6h3.8V25h-3.4zm4.1-6c.8 0 1.5.7 1.5 1.5s-.7 1.5-1.5 1.5-1.5-.7-1.5-1.5.7-1.5 1.5-1.5zm17.8 15.4h-1.5l-.3-1.5c-.7 1-2.2 1.7-3.9 1.7-1.9 0-3.4-1.2-3.4-3.3 0-2.4 1.8-3.6 5-3.6h2.2v-.5c0-1.6-1-2.3-2.5-2.3-1.2 0-2.2.8-2.6 1.9l-1.6-.4c.5-1.9 2.2-3.1 4.2-3.1 2.7 0 4.4 1.3 4.4 4.2v6.9zm-5.3-1.5c.9 0 1.7-.3 2.4-.8.7-.6 1.1-1.4 1.1-2.5v-.4h-2.4c-1.8 0-2.9.8-2.9 2 0 1.1.7 1.7 1.8 1.7zm18.9 1.5h-1.8V27c0-1.5-.7-2.2-2-2.2-.9 0-1.7.5-2.3 1.4-.6.9-.9 2.1-.9 3.7v4.4H136v-11h1.8v2c.8-1.3 2.2-2.2 3.7-2.2 2.2 0 3.3 1.3 3.3 3.5v7.7zM16.1 71.2h3.8c2.1 0 3.7.7 4.9 1.9 1.2 1.3 1.8 3.2 1.8 5.7s-.6 4.4-1.8 5.7c-1.2 1.3-2.8 1.9-4.9 1.9h-3.8V71.2zM18 73v11.6h1.7c3.2 0 4.9-1.7 4.9-5.8S22.9 73 19.7 73H18zm22.1 8.3h-8.6c.1 2.2 1.4 3.6 3.4 3.6 1.6 0 2.7-.7 3.5-2.2l1.5.8c-1.1 2-2.7 3.1-5 3.1-1.6 0-2.8-.5-3.8-1.6s-1.4-2.4-1.4-4 .5-2.9 1.4-4c1-1.1 2.2-1.6 3.8-1.6 1.6 0 2.9.5 3.8 1.5.9 1 1.4 2.3 1.4 3.8v.6zm-8.5-1.6h6.5c-.3-1.7-1.5-2.7-3.3-2.7-1.6-.1-2.8 1-3.2 2.7zm20.5-2l-1.4 1c-.6-1.2-1.5-1.7-2.6-1.7-1 0-1.9.5-1.9 1.5 0 .9.8 1.3 2.5 1.7.9.2 1.5.3 2.2.7 1 .4 1.7 1.2 1.7 2.3 0 1.1-.4 2-1.2 2.6-.8.6-1.8.9-3 .9-2.3 0-4.1-1.2-4.8-3.2l1.7-.7c.5 1.4 1.5 2.2 3 2.2 1.3 0 2.3-.6 2.3-1.7 0-.9-.8-1.2-2.8-1.6-2.2-.5-3.5-1.2-3.5-3.2 0-1 .4-1.7 1.1-2.3.7-.6 1.6-.9 2.7-.9 1.8 0 3.1.8 4 2.4zm5-.6v-1.6h5.2v9.4h4v1.6h-9.7v-1.6h3.8v-7.7h-3.3zm4.1-6.1c.8 0 1.5.7 1.5 1.5S62 74 61.2 74s-1.5-.7-1.5-1.5c.1-.8.7-1.5 1.5-1.5zm10.9 5.3c.7-.7 1.7-1 2.8-1 .8 0 1.5.2 2.2.6l2.3-1.2.8 1.5-1.8 1c.3.5.5 1.1.5 1.8 0 1.1-.4 2-1.1 2.7-.7.7-1.7 1-2.8 1-.8 0-1.4-.2-2-.5-.7.3-1 .6-1 1.1 0 .6.5.9 1.5.9h2.8c2.3 0 3.7 1 3.7 3 0 1.3-.5 2.2-1.5 2.8-1 .6-2.2.9-3.6.9-3.2 0-5.1-1.3-5.1-3.6 0-1 .4-1.8 1.1-2.3-.5-.4-.8-1-.8-1.7 0-1 .6-1.8 1.6-2.2-.4-.5-.7-1.2-.7-2.1 0-1.2.4-2 1.1-2.7zm1.5 9.5c-.5 0-.8 0-1.1-.1-.6.3-.9.9-.9 1.7 0 1.3 1.3 2.1 3.2 2.1 2.1 0 3.3-.8 3.3-2 0-1.1-.6-1.6-1.8-1.6h-2.7zm-.8-6.8c0 .7.2 1.2.6 1.5.4.4.9.6 1.5.6s1.1-.2 1.5-.5c.4-.4.6-.9.6-1.6 0-.7-.2-1.2-.6-1.5-.4-.4-.9-.6-1.5-.6s-1.1.2-1.5.6c-.4.3-.6.8-.6 1.5zm20 7.4H91v-7.2c0-1.5-.7-2.2-2-2.2-.9 0-1.7.5-2.3 1.4-.6.9-.9 2.1-.9 3.7v4.4H84v-11h1.8v2c.8-1.3 2.2-2.2 3.7-2.2 2.2 0 3.3 1.3 3.3 3.5v7.6zm-65.6 50.1c-.7 2.8-2.6 4.6-5.5 4.6-1.8 0-3.3-.7-4.5-2-1.2-1.3-1.8-3.3-1.8-5.8s.6-4.5 1.8-5.8c1.2-1.3 2.7-2 4.5-2 2.8 0 4.8 1.8 5.5 4.6l-1.8.5c-.7-2.3-1.8-3.3-3.7-3.3-2.7 0-4.3 1.9-4.3 6 0 4 1.6 6 4.3 6 1.9 0 3-1.1 3.7-3.3l1.8.5zm13.1-.6h-8.6c.1 2.2 1.4 3.6 3.4 3.6 1.6 0 2.7-.7 3.5-2.2l1.5.8c-1.1 2-2.7 3.1-5 3.1-1.6 0-2.8-.5-3.8-1.6s-1.4-2.4-1.4-4 .5-2.9 1.4-4c1-1.1 2.2-1.6 3.8-1.6 1.6 0 2.9.5 3.8 1.5.9 1 1.4 2.3 1.4 3.8v.6zm-8.4-1.7h6.5c-.3-1.7-1.5-2.7-3.3-2.7-1.7 0-2.9 1-3.2 2.7zm21.4 6.7h-1.8v-7.2c0-1.5-.7-2.2-2-2.2-.9 0-1.7.5-2.3 1.4-.6.9-.9 2.1-.9 3.7v4.4h-1.8v-11h1.8v2c.8-1.3 2.2-2.2 3.7-2.2 2.2 0 3.3 1.3 3.3 3.5v7.6zm3.5-9.3V130h2.9v-3.3l1.8-1.2v4.4h5.3v1.7h-5.3v5.6c0 1.5.6 2.2 1.9 2.2 1 0 1.9-.4 2.7-1.3l.7 1.5c-.9.9-2.1 1.4-3.4 1.4-2.4 0-3.7-1.3-3.7-3.8v-5.7h-2.9zm22 1.9c-.2-1.3-.9-2-2.1-2-1 0-1.9.5-2.6 1.5-.7 1-1.1 2.3-1.1 4.1v4h-1.8v-11H73v2c.9-1.5 2.3-2.2 4-2.2 2.2 0 3.5 1.3 3.6 3.7h-1.8zm15.4 2.4h-8.6c.1 2.2 1.4 3.6 3.4 3.6 1.6 0 2.7-.7 3.5-2.2l1.5.8c-1.1 2-2.7 3.1-5 3.1-1.6 0-2.8-.5-3.8-1.6s-1.4-2.4-1.4-4 .5-2.9 1.4-4c1-1.1 2.2-1.6 3.8-1.6 1.6 0 2.9.5 3.8 1.5.9 1 1.4 2.3 1.4 3.8v.6zm-8.4-1.7h6.5c-.3-1.7-1.5-2.7-3.3-2.7-1.7 0-2.8 1-3.2 2.7z" fill="#FFF"/><path fill="none" stroke="#FFF" stroke-width="2" stroke-miterlimit="10" d="M0 53.3h160M0 106.7h160"/></svg>